<svg width="112" height="116" viewBox="0 0 112 116" fill="none" xmlns="http://www.w3.org/2000/svg">
<path d="M3.22551 36.5239L13.7893 95.9355C16.1239 109.065 39.296 115.916 65.5441 111.249C91.7921 106.582 111.182 92.1634 108.848 79.0335L98.284 19.6219M3.22551 36.5239C5.5601 49.6539 28.7322 56.5046 54.9803 51.8375C81.2283 47.1705 100.619 32.7518 98.284 19.6219M3.22551 36.5239C0.890915 23.394 20.2812 8.97534 46.5293 4.30826C72.7773 -0.358811 95.9495 6.49192 98.284 19.6219M103.566 49.3277C105.901 62.4576 86.5102 76.8763 60.2622 81.5433C34.0141 86.2104 10.842 79.3597 8.50739 66.2297" stroke="#83F84C" stroke-width="5" stroke-linecap="round" stroke-linejoin="round"/>
</svg>
