<svg width="63" height="65" viewBox="0 0 63 65" fill="none" xmlns="http://www.w3.org/2000/svg">
<path d="M3.27579 20.9028L8.96527 52.9009C10.2226 59.9725 22.7028 63.6622 36.8396 61.1486C50.9763 58.6349 61.4196 50.8693 60.1623 43.7977L54.4728 11.7996M3.27579 20.9028C4.53316 27.9744 17.0133 31.664 31.1501 29.1504C45.2869 26.6368 55.7302 18.8712 54.4728 11.7996M3.27579 20.9028C2.01842 13.8312 12.4617 6.06555 26.5985 3.55193C40.7353 1.03832 53.2154 4.72802 54.4728 11.7996M57.3175 27.7987C58.5749 34.8703 48.1316 42.6359 33.9948 45.1495C19.858 47.6631 7.3779 43.9734 6.12053 36.9018" stroke="#83F84C" stroke-width="5" stroke-linecap="round" stroke-linejoin="round"/>
</svg>
