<svg width="129" height="129" viewBox="0 0 129 129" fill="none" xmlns="http://www.w3.org/2000/svg">
<path d="M58.8357 37.3927C47.7528 39.5928 39.9585 47.3623 41.4256 54.7531C42.8928 62.1439 53.0639 66.347 64.1468 64.1469C75.2297 61.9468 85.4008 66.1498 86.868 73.5407C88.3352 80.9315 80.5408 88.7009 69.4579 90.9011M58.8357 37.3927C66.26 35.9189 73.2817 37.3197 77.547 40.6304M58.8357 37.3927L57.508 30.7042M58.8357 37.3927L69.4579 90.9011M69.4579 90.9011L70.7856 97.5896M69.4579 90.9011C62.0336 92.3749 55.0119 90.974 50.7466 87.6634M124.344 52.197C125.913 60.1021 125.91 68.239 124.335 76.143C122.759 84.0469 119.642 91.5632 115.162 98.2626C110.682 104.962 104.926 110.714 98.2234 115.189C91.5206 119.664 84.0019 122.774 76.0967 124.344C68.1916 125.913 60.0547 125.91 52.1507 124.335C44.2468 122.759 36.7305 119.643 30.031 115.162C23.3316 110.682 17.5802 104.926 13.1052 98.2235C8.63016 91.5206 5.5192 84.002 3.94991 76.0968C0.7806 60.1316 4.08325 43.5613 13.1313 30.0311C22.1794 16.501 36.2317 7.1193 52.1969 3.94999C68.1621 0.780674 84.7324 4.08332 98.2626 13.1314C111.793 22.1795 121.174 36.2318 124.344 52.197Z" stroke="#83F84C" stroke-width="5" stroke-linecap="round" stroke-linejoin="round"/>
</svg>
