<svg width="62" height="62" viewBox="0 0 62 62" fill="none" xmlns="http://www.w3.org/2000/svg">
<path d="M28.493 18.7101C23.4365 19.7139 19.8804 23.2586 20.5498 26.6306C21.2192 30.0026 25.8596 31.9202 30.9161 30.9164C35.9725 29.9126 40.6129 31.8302 41.2823 35.2022C41.9517 38.5742 38.3956 42.1189 33.3392 43.1226M28.493 18.7101C31.8802 18.0377 35.0837 18.6768 37.0298 20.1873M28.493 18.7101L27.8872 15.6586M28.493 18.7101L33.3392 43.1226M33.3392 43.1226L33.945 46.1742M33.3392 43.1226C29.952 43.7951 26.7484 43.1559 24.8024 41.6455M58.3802 25.4644C59.0961 29.071 59.0947 32.7834 58.376 36.3894C57.6572 39.9955 56.2353 43.4247 54.1913 46.4813C52.1472 49.5378 49.5212 52.1618 46.4631 54.2035C43.405 56.2452 39.9747 57.6645 36.3681 58.3805C32.7614 59.0964 29.0491 59.095 25.443 58.3763C21.8369 57.6575 18.4077 56.2356 15.3512 54.1916C12.2946 52.1475 9.67063 49.5215 7.62897 46.4634C5.5873 43.4053 4.16797 39.975 3.452 36.3684C2.00604 29.0844 3.51283 21.5244 7.6409 15.3515C11.769 9.17852 18.1802 4.89826 25.4641 3.4523C32.748 2.00634 40.308 3.51313 46.481 7.6412C52.6539 11.7693 56.9342 18.1805 58.3802 25.4644Z" stroke="#83F84C" stroke-width="5" stroke-linecap="round" stroke-linejoin="round"/>
</svg>
