<svg width="68" height="68" viewBox="0 0 68 68" fill="none" xmlns="http://www.w3.org/2000/svg">
<path d="M49.7095 21.4283L46.1843 49.7094M34.247 30.2711L32.0438 47.9469M18.7845 39.114L17.9032 46.1843M9.07032 59.4436L51.4921 64.7313C53.3672 64.965 55.2584 64.4443 56.7496 63.2836C58.2408 62.1229 59.2099 60.4174 59.4436 58.5423L64.7313 16.1205C64.965 14.2454 64.4443 12.3542 63.2836 10.863C62.123 9.37176 60.4175 8.4027 58.5423 8.16897L16.1206 2.88128C14.2454 2.64755 12.3542 3.1683 10.863 4.32896C9.3718 5.48962 8.40274 7.19513 8.16901 9.07029L2.88132 51.492C2.64759 53.3672 3.16833 55.2584 4.329 56.7496C5.48966 58.2408 7.19517 59.2099 9.07032 59.4436Z" stroke="#83F84C" stroke-width="5" stroke-linecap="round" stroke-linejoin="round"/>
</svg>
