<?xml version="1.0" encoding="UTF-8"?>
<!DOCTYPE svg PUBLIC "-//W3C//DTD SVG 1.1//EN" "http://www.w3.org/Graphics/SVG/1.1/DTD/svg11.dtd">
<!-- Creator: CorelDRAW -->
<svg xmlns="http://www.w3.org/2000/svg" xml:space="preserve" width="112.761mm" height="54mm" version="1.1" style="shape-rendering:geometricPrecision; text-rendering:geometricPrecision; image-rendering:optimizeQuality; fill-rule:evenodd; clip-rule:evenodd"
viewBox="0 0 29714.55 14230.01"
 xmlns:xlink="http://www.w3.org/1999/xlink"
 xmlns:xodm="http://www.corel.com/coreldraw/odm/2003">
 <defs>
  <style type="text/css">
   <![CDATA[
    .fil0 {fill:lime}
   ]]>
  </style>
 </defs>
 <g id="Слой_x0020_1">
  <metadata id="CorelCorpID_0Corel-Layer"/>
  <g id="_2225333843616">
   <polygon class="fil0" points="27130.62,7645.15 25837.59,7645.15 25837.59,6352.12 27130.62,6352.12 "/>
   <polygon class="fil0" points="14211.85,6352.12 12918.79,6352.12 12918.79,7645.18 14211.85,7645.18 "/>
   <polygon class="fil0" points="24546.87,7645.15 23253.84,7645.15 23253.84,6352.12 24546.87,6352.12 "/>
   <polygon class="fil0" points="16795.6,6352.12 15502.57,6352.12 15502.57,7645.15 16795.6,7645.15 "/>
   <polygon class="fil0" points="21963.12,7645.18 20670.09,7645.18 20670.09,6352.12 21963.12,6352.12 "/>
   <polygon class="fil0" points="19379.38,6352.12 18086.32,6352.12 18086.32,7645.15 19379.38,7645.15 "/>
   <polygon class="fil0" points="28421.52,7764.79 27128.46,7764.79 27128.46,9057.85 28421.52,9057.85 "/>
   <polygon class="fil0" points="25835.42,10350.88 27128.46,10350.88 27128.46,9057.85 25835.42,9057.85 "/>
   <polygon class="fil0" points="25835.42,10350.88 24542.39,10350.88 24542.39,11643.92 25835.42,11643.92 "/>
   <polygon class="fil0" points="23249.33,12936.98 24542.39,12936.98 24542.39,11643.92 23249.33,11643.92 "/>
   <polygon class="fil0" points="23249.33,12936.98 21956.3,12936.98 21956.3,14230.01 23249.33,14230.01 "/>
   <polygon class="fil0" points="29714.55,7645.15 28421.52,7645.15 28421.52,6352.12 29714.55,6352.12 "/>
   <polygon class="fil0" points="27128.46,5172.16 28421.52,5172.16 28421.52,6465.22 27128.46,6465.22 "/>
   <polygon class="fil0" points="27128.46,5172.16 25835.42,5172.16 25835.42,3879.13 27128.46,3879.13 "/>
   <polygon class="fil0" points="24542.39,2586.09 25835.42,2586.09 25835.42,3879.13 24542.39,3879.13 "/>
   <polygon class="fil0" points="24542.39,2586.09 23249.33,2586.09 23249.33,1293.03 24542.39,1293.03 "/>
   <polygon class="fil0" points="21956.3,0 23249.33,0 23249.33,1293.03 21956.3,1293.03 "/>
   <polygon class="fil0" points="10335.02,6352.12 11628.08,6352.12 11628.08,7645.18 10335.02,7645.18 "/>
   <polygon class="fil0" points="-0,7645.15 1293.03,7645.15 1293.03,6352.12 -0,6352.12 "/>
   <polygon class="fil0" points="7751.27,6352.12 9044.3,6352.12 9044.3,7645.15 7751.27,7645.15 "/>
   <polygon class="fil0" points="2583.75,7645.18 3876.78,7645.18 3876.78,6352.12 2583.75,6352.12 "/>
   <polygon class="fil0" points="5167.5,6352.12 6460.56,6352.12 6460.56,7645.15 5167.5,7645.15 "/>
  </g>
 </g>
</svg>
