<svg width="267" height="49" viewBox="0 0 267 49" fill="none" xmlns="http://www.w3.org/2000/svg">
<path d="M33.1776 40.1393C33.1776 39.4288 35.2225 36.8413 37.7219 34.3893C42.5083 29.6935 50.1776 18.6854 50.1776 16.5111C50.1776 15.8067 47.7362 17.4618 44.7522 20.189C38.7239 25.6985 22.8841 35.5238 15.7937 38.1517C12.1971 39.4847 10.9377 39.5912 9.98907 38.6426C8.32333 36.9768 9.72027 35.935 15.4962 34.5354C22.7474 32.7783 41.5684 20.4849 50.7829 11.4869C53.2091 9.11761 55.1776 8.81397 55.1776 10.809C55.1776 13.2228 52.3407 19.0838 49.5902 22.3526C46.385 26.1618 46.9153 27.1352 51.035 25.0048C54.9021 23.0051 57.1776 22.9997 57.1776 24.9901C57.1776 25.8476 56.7173 26.2646 56.1546 25.9169C54.3587 24.8069 42.8142 32.1165 38.8778 36.8561C35.0594 41.4536 33.1776 42.5375 33.1776 40.1393ZM153.178 40.1769C153.178 38.7665 170.66 20.6907 175.86 16.7242C182.834 11.4046 180.168 15.7838 170.711 25.1786C165.319 30.5365 159.789 36.3852 158.423 38.1757C155.922 41.4545 153.178 42.5016 153.178 40.1769ZM245.178 40.3836C242.153 39.9516 237.31 38.6606 234.417 37.5147C228.498 35.1706 224.933 34.9231 220.309 36.5351C216.106 38.0004 212.178 36.9747 212.178 34.4121C212.178 31.9635 211.473 31.9525 205.465 34.3068C194.792 38.489 191.545 37.8905 196.428 32.6409L198.678 30.2219L194.678 31.9309C192.478 32.8709 189.151 34.3008 187.286 35.1083C185.42 35.9158 182.078 36.7955 179.858 37.063C177.639 37.3305 175.396 37.6353 174.875 37.7403C172.614 38.1957 173.339 35.6074 175.634 35.0314C177.033 34.6803 178.178 34.005 178.178 33.5307C178.178 31.9425 184.535 26.4311 186.367 26.4311C188.605 26.4311 188.79 29.6782 186.653 31.4512C183.637 33.9546 186.053 33.4374 193.741 29.9339C202.683 25.8588 205.521 25.908 202.238 30.0811C201.09 31.5415 200.337 32.924 200.566 33.1533C201.139 33.7262 211.309 29.4066 213.256 27.7633C214.125 27.0306 215.186 26.4311 215.615 26.4311C216.043 26.4311 219.222 24.1811 222.678 21.4311C229.209 16.2337 231.178 15.4146 231.178 17.8939C231.178 18.6984 228.59 21.1209 225.428 23.2773C218.465 28.0248 214.178 31.926 214.178 33.5142C214.178 35.3003 220.733 33.9263 223.828 31.4915C227.087 28.9281 229.52 28.775 228.76 31.1811C228.291 32.6635 229.619 33.2785 237.442 35.203C242.522 36.4525 248.339 37.465 250.369 37.453C254.32 37.4296 256.317 39.0951 254.056 40.5276C253.298 41.0077 252.228 41.3484 251.678 41.2847C251.128 41.221 248.203 40.8155 245.178 40.3836ZM165.178 37.4311C165.178 36.8811 165.628 36.4311 166.178 36.4311C166.728 36.4311 167.178 36.8811 167.178 37.4311C167.178 37.9811 166.728 38.4311 166.178 38.4311C165.628 38.4311 165.178 37.9811 165.178 37.4311ZM118.653 36.3909C118.249 35.7379 115.856 35.5944 112.224 36.0054C105.433 36.7737 104.38 35.8742 106.736 31.3178C108.373 28.1528 108.371 28.1475 106.027 28.8927C104.735 29.3035 102.103 29.8796 100.178 30.1729C98.2526 30.4662 96.092 31.5408 95.3763 32.5609C94.6606 33.581 93.1212 34.9261 91.9555 35.55C90.2602 36.4573 89.6066 36.3707 88.6902 35.1175C87.7342 33.81 86.8472 33.7276 83.3323 34.6198C79.8215 35.511 78.8218 35.4191 77.329 34.0681C75.7479 32.6372 75.3116 32.6184 73.6077 33.9073C72.5462 34.7104 71.3401 35.3818 70.9276 35.3993C69.1127 35.4763 70.5699 32.7358 75.9276 25.9968C79.0901 22.0188 82.6081 17.476 83.7453 15.9015C85.5216 13.4424 85.9061 13.2811 86.4725 14.7573C86.9188 15.9203 86.008 17.72 83.6548 20.3247C79.2748 25.1728 79.2406 26.1734 83.5456 23.5127C87.2608 21.2166 88.1776 20.9837 88.1776 22.3361C88.1776 22.8338 86.2053 24.3969 83.7948 25.8096C79.3495 28.4147 77.4966 30.8922 79.2043 31.9476C80.9746 33.0417 87.1874 31.2066 90.9563 28.4765C93.6512 26.5243 95.2884 25.9663 96.7014 26.5184C97.7883 26.9431 99.6768 27.3222 100.898 27.3608C104.529 27.4758 113.986 22.6093 116.353 19.4075C118.861 16.0153 120.178 15.6135 120.178 18.2404C120.178 19.2355 117.703 22.1864 114.678 24.798C108.869 29.8128 107.467 33.4311 111.333 33.4311C112.519 33.4311 115.023 32.2607 116.899 30.8301C120.408 28.1536 122.443 28.201 120.198 30.9069C119.177 32.1365 119.179 32.7284 120.209 33.9693C121.764 35.8423 128.178 35.1396 135.465 32.2979C141.178 30.07 141.178 30.07 141.178 31.777C141.178 32.5901 138.243 33.9756 133.764 35.277C125.758 37.6033 119.679 38.0514 118.653 36.3909ZM57.1776 32.3815C57.1776 31.8041 57.8909 29.9524 58.7627 28.2666C59.8194 26.2231 60.6811 25.5346 61.3478 26.2013C62.0145 26.868 61.8109 28.2396 60.737 30.3162C59.171 33.3446 57.1776 34.5012 57.1776 32.3815ZM70.3458 19.7963C70.5434 18.7704 71.1488 18.0436 71.6913 18.1811C73.1447 18.5495 72.8907 20.6934 71.3321 21.2129C70.4559 21.505 70.1119 21.0109 70.3458 19.7963ZM165.606 12.3156C164.241 10.1062 167.152 9.56982 182.939 9.12189C198.244 8.68765 201.954 9.19457 199.54 11.3906C198.128 12.6761 166.364 13.5419 165.606 12.3156Z" fill="#F5F5F5"/>
<path fill-rule="evenodd" clip-rule="evenodd" d="M127.89 30.0638C127.283 29.6893 126.743 32.6246 128.032 31.3357C128.546 30.8218 128.288 30.7268 127.89 30.0638Z" fill="#F5F5F5" stroke="#F5F5F5"/>
<path fill-rule="evenodd" clip-rule="evenodd" d="M183.215 31.0529C182.685 30.9386 182.578 31.3347 183.003 31.7595C183.305 31.9889 183.99 31.1521 183.215 31.0529Z" fill="white" stroke="white"/>
<path fill-rule="evenodd" clip-rule="evenodd" d="M93.6161 30.4675C93.2459 30.3906 93.1716 30.6571 93.4681 30.9429C93.6789 31.0973 94.1569 30.5342 93.6161 30.4675Z" fill="white" stroke="white" stroke-width="0.685392"/>
</svg>
