<svg width="140" height="140" viewBox="0 0 140 140" fill="none" xmlns="http://www.w3.org/2000/svg">
<path d="M104.007 42.9465L96.3957 104.007M70.6224 62.0386L65.8656 100.201M37.2382 81.1308L35.3354 96.3958M16.2649 125.023L107.855 136.44C111.904 136.944 115.987 135.82 119.207 133.314C122.426 130.808 124.518 127.126 125.023 123.077L136.439 31.4869C136.944 27.4383 135.82 23.3551 133.314 20.1356C130.808 16.916 127.126 14.8237 123.077 14.3191L31.4867 2.90273C27.4382 2.39809 23.355 3.5224 20.1354 6.02833C16.9158 8.53425 14.8236 12.2165 14.319 16.2651L2.90259 107.855C2.39796 111.904 3.52227 115.987 6.02819 119.207C8.53412 122.426 12.2164 124.519 16.2649 125.023Z" stroke="#83F84C" stroke-width="5" stroke-linecap="round" stroke-linejoin="round"/>
</svg>
